<svg width="90" height="91" viewBox="0 0 90 91" fill="none" xmlns="http://www.w3.org/2000/svg">
<circle cx="45" cy="45.5" r="45" fill="#26264F"/>
<g clip-path="url(#clip0_71_233)">
<path d="M69.581 66.1492L66.027 63.6539C65.7247 63.4418 65.3335 63.4157 65.0059 63.5861C64.6782 63.7563 64.4747 64.0915 64.4747 64.4608V66.2226H57.3056V56.4228H58.1662C61.1703 56.4228 63.6143 53.9788 63.6143 50.9747V50.7033C63.6143 49.8093 62.8868 49.0819 61.9928 49.0819H61.2867C59.7168 49.0819 58.3007 49.7502 57.3056 50.8162V44.0588H59.4166C63.0145 44.0588 65.9417 41.1316 65.9417 37.5337C65.9417 36.8327 65.3714 36.2623 64.6704 36.2623H61.8259C61.7929 36.2623 61.7601 36.2633 61.7274 36.2644L61.6924 36.2655C61.2874 36.2743 60.9663 36.6098 60.9752 37.0148C60.9841 37.4198 61.3186 37.7437 61.7245 37.732L61.7769 37.7305C61.7933 37.7299 61.8095 37.7292 61.8259 37.7292H64.471C64.3677 40.4279 62.1402 42.5917 59.4166 42.5917H57.3056V42.2495C57.3056 40.8547 57.9362 39.5591 59.0359 38.6947C59.3544 38.4443 59.4096 37.9832 59.1593 37.6647C58.909 37.3461 58.4478 37.2911 58.1294 37.5413C57.3401 38.1619 56.7351 38.9513 56.345 39.8378C55.5669 38.8893 54.3864 38.2828 53.0667 38.2828H51.7165C50.8691 38.2828 50.1797 38.9722 50.1797 39.8196C50.1797 42.157 52.0813 44.0587 54.4186 44.0587H55.8388V54.5298V55.6891V66.2224H50.9794C50.5742 66.2224 50.2459 66.5508 50.2459 66.9559C50.2459 67.3609 50.5742 67.6894 50.9794 67.6894H64.4748V69.4512C64.4748 69.8205 64.6783 70.1557 65.006 70.326C65.1498 70.4007 65.3057 70.4377 65.4611 70.4377C65.6598 70.4377 65.8576 70.3772 66.0271 70.2581L69.5811 67.7628C69.8438 67.5785 70.0005 67.2767 70.0005 66.956C70.0004 66.6353 69.8436 66.3337 69.581 66.1492ZM51.6467 39.8198C51.6467 39.7813 51.678 39.75 51.7165 39.75H53.0667C54.5952 39.75 55.8388 40.9935 55.8388 42.5221V42.5919H54.4186C52.8902 42.5919 51.6467 41.3484 51.6467 39.8198ZM61.2867 50.5489H61.9928C62.078 50.5489 62.1473 50.6182 62.1473 50.7034V50.9748C62.1473 53.17 60.3614 54.9559 58.1662 54.9559H57.3056V54.5301C57.3056 52.3348 59.0915 50.5489 61.2867 50.5489ZM65.9417 68.5258V65.3865L68.1772 66.9562L65.9417 68.5258Z" fill="#F7C35F"/>
<path d="M47.853 66.2227H45.7826V57.4521H46.8607C49.6122 57.4521 51.8506 55.2137 51.8506 52.4623V51.6167C51.8506 50.6796 51.0882 49.9172 50.1511 49.9172H49.3055C47.3091 49.9172 45.5836 51.0963 44.7865 52.7941C44.1386 52.1211 43.2298 51.701 42.2241 51.701H41.2989C40.5999 51.701 40.0312 52.2697 40.0312 52.9687V53.8938C40.0312 55.8559 41.6275 57.4522 43.5897 57.4522H44.3156V66.2228H35.2391V63.7355H35.7823C38.0515 63.7355 39.8977 61.8892 39.8977 59.6199V58.7132C39.8977 57.9034 39.2389 57.2444 38.4289 57.2444H37.8876C36.3411 57.2444 34.9918 58.1022 34.2886 59.3667C33.7073 58.7893 32.9072 58.4319 32.025 58.4319H31.3126C30.6792 58.4319 30.164 58.9472 30.164 59.5804V60.5213C30.164 62.2935 31.6058 63.7354 33.378 63.7354H33.7721V66.2227H24.512V59.6857H25.2598C25.6649 59.6857 25.9932 59.3573 25.9932 58.9523C25.9932 58.5472 25.6649 58.2188 25.2598 58.2188H24.512V52.6293H25.2598C25.6649 52.6293 25.9932 52.3009 25.9932 51.8959C25.9932 51.4908 25.6649 51.1624 25.2598 51.1624H24.512V45.573H25.2598C25.6649 45.573 25.9932 45.2446 25.9932 44.8396C25.9932 44.4345 25.6649 44.1061 25.2598 44.1061H24.512V38.5167H25.2598C25.6649 38.5167 25.9932 38.1883 25.9932 37.7833C25.9932 37.3782 25.6649 37.0498 25.2598 37.0498H24.512V31.4603H25.2598C25.6649 31.4603 25.9932 31.1319 25.9932 30.7268C25.9932 30.3218 25.6649 29.9934 25.2598 29.9934H24.512V26.0878H26.2739C26.6431 26.0878 26.9783 25.8843 27.1485 25.5567C27.3189 25.229 27.293 24.8378 27.0808 24.5354L24.5854 20.9815C24.4011 20.719 24.0996 20.5622 23.7788 20.5621C23.7787 20.5621 23.7786 20.5621 23.7785 20.5621C23.4578 20.5621 23.1562 20.7188 22.9717 20.9815L20.4764 24.5354C20.2642 24.8376 20.238 25.2288 20.4084 25.5566C20.5788 25.8843 20.9139 26.0878 21.2832 26.0878H23.045V66.2227H20.7335C20.3283 66.2227 20 66.5511 20 66.9561C20 67.3612 20.3283 67.6896 20.7335 67.6896H47.853C48.2582 67.6896 48.5865 67.3612 48.5865 66.9561C48.5865 66.5511 48.2581 66.2227 47.853 66.2227ZM45.7826 54.9071C45.7826 52.9645 47.3629 51.3842 49.3055 51.3842H50.1511C50.2794 51.3842 50.3836 51.4885 50.3836 51.6167V52.4623C50.3836 54.4049 48.8033 55.9852 46.8607 55.9852H45.7826V55.2593V54.9071ZM41.4983 53.8938V53.1679H42.2242C43.3774 53.1679 44.3157 54.1062 44.3157 55.2594V55.9853H43.5898C42.4366 55.9853 41.4983 55.047 41.4983 53.8938ZM35.2392 61.36C35.2392 59.8995 36.4273 58.7115 37.8877 58.7115L38.4309 58.7133V59.62C38.4309 61.0804 37.2428 62.2686 35.7824 62.2686H35.2392V61.6461V61.36ZM31.6312 60.5214V59.8989H32.0252C32.9886 59.8989 33.7723 60.6827 33.7723 61.646V62.2685H33.3781C32.4148 62.2685 31.6312 61.4847 31.6312 60.5214ZM23.7785 22.3852L25.3483 24.6208H22.2088L23.7785 22.3852Z" fill="#F7C35F"/>
<path d="M56.1457 24.9958L53.1076 24.6262C52.7057 24.5773 52.3397 24.8635 52.2908 25.2658C52.2419 25.6679 52.5282 26.0336 52.9303 26.0825L54.2191 26.2392L41.0376 36.6344L40.4627 35.405C40.3669 35.2001 40.1818 35.0507 39.9611 35.0006C39.7407 34.9506 39.509 35.0047 39.3338 35.148L28.0503 44.3789C27.7368 44.6354 27.6905 45.0975 27.9471 45.411C28.0921 45.5882 28.3028 45.6801 28.5152 45.6801C28.6786 45.6801 28.843 45.6258 28.9792 45.5143L39.5332 36.8802L40.1007 38.094C40.1955 38.2969 40.3779 38.4453 40.5958 38.497C40.8136 38.5487 41.0433 38.498 41.2193 38.3592L55.3238 27.2366V28.9561C55.3238 29.3611 55.6521 29.6895 56.0573 29.6895C56.4624 29.6895 56.7908 29.3611 56.7908 28.9561V25.724C56.7908 25.3152 56.4645 25.0348 56.1457 24.9958Z" fill="#F7C35F"/>
</g>
<defs>
<clipPath id="clip0_71_233">
<rect width="50" height="50" fill="white" transform="translate(20 20.5)"/>
</clipPath>
</defs>
</svg>
